<svg version="1.1" id="Layer_1" xmlns="http://www.w3.org/2000/svg" xmlns:xlink="http://www.w3.org/1999/xlink" x="0px" y="0px"
	 width="100%" viewBox="0 0 1024 1024" enable-background="new 0 0 1024 1024" xml:space="preserve">
<path fill="#000000" opacity="1.000000" stroke="none" 
	d="
M230.000092,172.661041 
	C437.813477,172.661514 645.127686,172.355286 852.439697,172.887222 
	C901.870850,173.014038 931.500244,205.281189 939.192749,248.961700 
	C939.592224,251.229935 939.343689,253.617783 939.344116,255.949951 
	C939.371948,407.102142 939.310791,558.254456 939.528198,709.406372 
	C939.553833,727.226807 939.805969,745.058044 939.957031,762.884216 
	C940.134460,783.827148 934.983582,803.034180 921.697266,819.658386 
	C906.725281,838.391785 887.549561,850.047668 863.873291,854.134094 
	C861.924133,854.470459 859.884521,854.332458 857.886963,854.332581 
	C631.408569,854.348206 404.929626,854.612305 178.452194,854.141846 
	C134.594666,854.050720 102.726227,831.619019 89.497704,789.635986 
	C87.378532,782.910461 86.696198,775.946106 86.694878,768.952881 
	C86.662514,597.635864 86.552071,426.318665 86.817841,255.002029 
	C86.855118,230.973694 98.664711,211.777863 115.790695,195.660248 
	C132.835846,179.618713 153.842056,173.570786 176.515732,172.785202 
	C194.157440,172.173950 211.837234,172.661896 230.000092,172.661041 
M548.402100,832.084106 
	C554.726196,832.273926 561.050049,832.621399 567.374329,832.627625 
	C604.027588,832.663940 640.676819,832.303650 677.329102,831.929443 
	C736.146973,831.328979 794.978027,831.370178 853.797607,831.859985 
	C884.754211,832.117676 910.414673,806.632629 915.614746,781.616882 
	C917.212708,773.929749 917.592224,766.082825 917.575500,758.300171 
	C917.479431,713.478943 917.553589,668.658447 917.245544,623.835510 
	C916.619141,532.686035 916.826660,441.530823 916.686646,350.377991 
	C916.675903,343.386871 916.656677,343.207977 909.504211,343.409241 
	C881.187317,344.205963 852.864319,344.105591 824.541626,344.241577 
	C692.569458,344.875061 560.594238,343.423706 428.622437,344.991394 
	C386.145630,345.495972 343.663208,345.245941 301.180817,344.535431 
	C272.698517,344.059021 244.202042,344.448761 215.709518,344.833038 
	C182.219513,345.284729 148.720963,345.184814 115.226463,345.127350 
	C110.727249,345.119629 109.250183,346.336792 109.254143,351.031464 
	C109.372025,491.010498 109.347321,630.989685 109.352890,770.968872 
	C109.352959,772.632935 109.296997,774.319519 109.531654,775.957703 
	C114.008316,807.211365 143.666595,832.238831 174.981796,832.132202 
	C299.128357,831.709290 423.277496,832.036743 548.402100,832.084106 
M728.500061,194.402420 
	C701.507507,194.549789 674.516418,194.531296 647.521790,194.849976 
	C598.198669,195.432266 548.868835,194.748901 499.541565,194.547485 
	C394.044525,194.116730 288.544586,194.398331 183.045837,194.393539 
	C178.220459,194.393311 173.427826,194.717377 168.605606,195.135101 
	C140.307419,197.586365 108.219772,223.395294 109.263573,261.090424 
	C109.761620,279.076416 109.348518,297.087616 109.350777,315.087402 
	C109.351723,322.651062 109.354836,322.655853 116.956955,322.648071 
	C345.115997,322.414642 573.276062,323.383881 801.434265,322.051331 
	C837.932983,321.838165 874.432617,321.786713 910.931824,321.662903 
	C913.783997,321.653229 916.782532,322.138306 916.676697,317.631378 
	C916.137146,294.660248 917.919800,271.647095 915.699707,248.710373 
	C913.131958,222.182343 890.224243,196.964066 858.461792,195.594757 
	C833.680603,194.526398 808.836487,194.013397 783.998718,194.348984 
	C765.835571,194.594376 747.666504,194.402359 728.500061,194.402420 
z"/>
<path fill="#000000" opacity="1.000000" stroke="none" 
	d="
M566.211670,815.329651 
	C561.222595,814.806519 557.712097,812.566101 554.847351,809.023254 
	C546.340271,798.502747 538.921326,787.184692 532.003845,775.639099 
	C523.331604,761.164673 512.416931,749.789368 497.479797,741.445801 
	C483.719513,733.759521 471.082458,724.042847 458.065582,715.054199 
	C452.203278,711.006165 450.301758,705.078186 454.385712,699.528748 
	C462.548126,688.437134 472.023590,678.379028 486.649200,676.168335 
	C493.262238,675.168701 499.860260,677.070435 506.414459,678.131836 
	C515.586060,679.617004 524.767151,681.048889 533.919739,682.643982 
	C537.841248,683.327454 540.842834,682.489685 543.542969,679.301636 
	C550.862976,670.658752 558.473755,662.262817 565.921997,653.727722 
	C576.329529,641.801636 586.744507,629.885498 597.944458,618.682312 
	C599.211243,617.415161 600.756531,616.294434 601.283081,614.313354 
	C600.251709,612.169373 597.961914,611.707458 596.123230,610.730225 
	C553.621094,588.142639 511.075012,565.637817 468.590057,543.018066 
	C458.616669,537.708008 457.661865,530.034302 465.681946,522.189758 
	C473.779449,514.269592 482.510071,507.013672 490.186523,498.646179 
	C493.208923,495.351746 496.769836,494.349915 501.440063,495.611511 
	C560.123413,511.464355 619.490234,524.484863 678.681213,538.237732 
	C681.957520,538.998962 683.672485,537.438599 685.654297,535.637085 
	C705.010681,518.041931 724.434204,500.519989 743.714355,482.841675 
	C756.612366,471.015228 770.292419,460.686981 787.741394,456.401062 
	C800.585938,453.246033 813.322205,452.522247 826.081604,456.581726 
	C839.610779,460.886078 847.544617,471.286652 848.336365,485.392059 
	C848.849976,494.540802 847.430298,503.384033 843.883484,511.739136 
	C836.512817,529.102234 826.232361,544.397766 812.166199,557.268372 
	C793.609192,574.248047 775.625244,591.852905 757.292053,609.079529 
	C754.893921,611.332886 754.995667,613.716187 755.682556,616.343811 
	C767.697327,662.305542 778.071777,708.703796 792.382507,754.056519 
	C793.976440,759.107788 794.979248,764.351501 796.136902,769.532532 
	C796.903809,772.964661 795.527222,775.930176 793.049133,778.060852 
	C785.985291,784.134277 779.320068,790.741333 771.255554,795.544067 
	C768.851501,796.975830 766.195374,798.160828 763.501099,798.895203 
	C755.565430,801.058167 750.798584,799.264954 746.372253,792.428650 
	C725.820312,760.686584 706.085205,728.441101 686.950562,695.825256 
	C683.590698,690.098145 679.917542,684.554871 676.025879,678.347351 
	C670.420532,682.574890 665.100647,686.475342 659.900330,690.529175 
	C640.589966,705.582520 621.348328,720.719971 602.312805,736.124817 
	C596.765259,740.614319 594.862244,746.115784 594.396423,752.560486 
	C593.354248,766.979004 591.644775,781.316650 589.338318,795.577393 
	C587.659546,805.957336 577.062500,815.022888 566.211670,815.329651 
M567.642395,788.060669 
	C568.632996,787.696960 568.571533,786.793396 568.681702,785.995056 
	C570.992126,769.248779 573.417358,752.516479 575.493958,735.741150 
	C575.877136,732.645691 576.953796,730.416138 579.149658,728.465271 
	C584.627747,723.598267 589.971497,718.573181 595.570068,713.849731 
	C620.139221,693.120972 645.638855,673.542908 670.617981,653.321045 
	C706.757141,624.064514 741.424011,593.116577 775.172852,561.151184 
	C788.692627,548.345886 803.362061,536.610840 814.344299,521.318787 
	C821.059753,511.967773 825.146667,501.435486 826.519470,490.036163 
	C827.027771,485.815613 826.694763,480.855530 822.222290,478.625458 
	C817.475830,476.258759 812.124634,474.954712 806.745972,475.451172 
	C792.327881,476.781952 779.190063,481.639526 767.953735,490.936737 
	C752.162292,504.002991 737.503113,518.330261 722.427795,532.194092 
	C695.950806,556.543457 669.308533,580.714539 642.966064,605.208374 
	C610.588806,635.313538 581.537415,668.569031 552.569641,701.874878 
	C549.671997,705.206482 546.677856,705.631653 542.882385,705.115723 
	C526.284302,702.859436 509.700989,700.469666 493.065460,698.530518 
	C488.300232,697.975037 483.543365,699.140869 480.324615,703.921997 
	C481.328949,704.707886 482.041077,705.376038 482.853363,705.884033 
	C493.441589,712.505676 503.926056,719.304382 514.676819,725.651794 
	C524.982178,731.736145 534.466614,738.478455 540.367920,749.338867 
	C542.342590,752.972717 545.065857,756.199097 547.438110,759.617859 
	C553.981323,769.047424 560.519775,778.480225 567.642395,788.060669 
M516.673340,522.087891 
	C514.417908,521.544678 512.163269,520.998169 509.906921,520.458679 
	C501.122528,518.358643 494.822418,521.060608 489.823395,529.117004 
	C491.322174,531.007812 493.602051,531.722839 495.625916,532.791321 
	C510.636475,540.716248 525.816162,548.333984 540.660278,556.558044 
	C564.980713,570.032288 589.754150,582.614136 614.565063,595.138733 
	C617.878540,596.811462 620.176270,596.641418 622.854126,593.856995 
	C627.464111,589.063660 632.491089,584.670410 637.357605,580.124817 
	C645.223572,572.777466 653.101257,565.442749 662.118713,557.035522 
	C612.716675,546.794983 565.165283,534.276978 516.673340,522.087891 
M768.644409,750.625244 
	C757.648438,710.040222 746.652527,669.455261 735.494873,628.273621 
	C722.149841,639.589050 709.854370,650.292542 697.205933,660.561401 
	C693.642090,663.454895 693.742004,665.453979 695.834900,669.121887 
	C713.824768,700.649231 735.171875,730.096008 753.062012,761.684692 
	C755.726379,766.389221 758.463745,771.177734 762.172180,775.137207 
	C772.502136,770.025330 773.738281,767.308411 770.594177,757.131287 
	C770.005554,755.225708 769.387207,753.329346 768.644409,750.625244 
z"/>
<path fill="#000000" opacity="1.000000" stroke="none" 
	d="
M223.112701,501.041138 
	C206.992798,533.211792 201.707062,567.162720 204.581131,602.256348 
	C207.133423,633.421021 219.017975,661.433472 236.528061,687.255371 
	C264.706116,728.809326 303.437134,754.053833 352.592590,763.674072 
	C364.008209,765.908325 375.442780,768.338074 387.055634,768.527527 
	C407.795624,768.865967 427.416046,762.952393 446.835449,756.383972 
	C450.613007,755.106262 454.385498,753.802185 458.208160,752.672058 
	C462.618256,751.368286 466.550079,752.130127 469.066559,756.309814 
	C471.912933,761.037476 471.403503,766.532104 468.145905,770.268372 
	C466.213562,772.484741 463.723358,773.860352 461.037964,774.747559 
	C436.689056,782.791504 412.291229,790.301147 386.119446,789.433472 
	C341.903534,787.967834 301.545654,775.823364 265.534119,749.300659 
	C221.192505,716.642822 195.399368,672.482849 184.153168,619.551880 
	C180.657074,603.097229 181.717865,585.846375 182.465012,568.835693 
	C183.640579,542.070923 191.139359,517.078064 202.381165,493.168365 
	C220.303070,455.050934 247.796188,425.440491 283.711334,403.380310 
	C308.237000,388.315857 334.790466,380.564880 363.328796,378.528992 
	C380.814056,377.281586 398.340607,376.534698 415.677612,378.885010 
	C448.615540,383.350342 479.215149,394.122314 506.212036,414.282684 
	C527.885376,430.467590 547.251160,448.759247 562.291382,471.373138 
	C563.947693,473.863464 565.551208,476.426208 566.834290,479.119720 
	C569.714355,485.165741 568.416321,490.809479 563.715149,493.730072 
	C558.628662,496.890045 552.212219,495.642029 548.198853,490.342163 
	C543.878723,484.637329 540.071411,478.539551 535.675110,472.897797 
	C505.207123,433.798340 465.708984,409.853363 416.731659,401.131836 
	C376.171539,393.909210 337.462738,400.393524 301.388702,418.562592 
	C266.065430,436.353607 240.178787,464.630585 223.112701,501.041138 
z"/>
<path fill="#000000" opacity="1.000000" stroke="none" 
	d="
M396.379211,551.241760 
	C397.534607,555.813721 401.165649,557.982971 403.992889,560.637756 
	C413.399139,569.470215 417.587860,579.740479 413.729584,592.487671 
	C412.734955,595.773682 415.061432,596.989685 416.898956,598.550903 
	C431.992828,611.374878 447.135590,624.141479 462.200592,636.999207 
	C464.579865,639.029907 467.070862,641.159302 467.302124,644.679810 
	C467.537384,648.261047 467.547150,651.757874 463.748596,653.789795 
	C458.240784,656.735840 452.489471,657.818604 447.375244,653.595764 
	C439.427277,647.033020 431.720917,640.150574 424.236694,633.061035 
	C416.487732,625.720703 408.090393,619.162354 400.119232,612.103149 
	C397.365143,609.664124 394.897430,610.802307 392.238403,611.481689 
	C377.675201,615.202698 361.874908,607.262817 356.479767,593.473999 
	C350.779999,578.906555 356.232727,563.706726 370.130798,556.566223 
	C373.668823,554.748413 374.743927,552.628540 374.727051,548.825439 
	C374.592651,518.519897 374.667694,488.213440 374.632965,457.907318 
	C374.629669,455.031616 374.818848,452.281036 376.376160,449.750641 
	C378.962952,445.547424 382.830475,444.239685 387.501129,444.714478 
	C391.792328,445.150696 394.507202,447.522156 395.684906,451.633209 
	C396.601471,454.832733 397.262848,458.080658 397.246613,461.436707 
	C397.135437,484.415405 397.066742,507.394348 396.904144,530.372681 
	C396.855835,537.192200 396.550446,544.009827 396.379211,551.241760 
M375.420197,582.683777 
	C375.177765,590.454346 384.830414,593.731750 389.918091,590.596558 
	C393.384949,588.460144 394.466095,585.180786 393.469849,581.589294 
	C392.245056,577.174072 388.743042,574.050110 384.603973,572.953430 
	C381.462646,572.121094 378.890137,575.024109 377.206512,577.817322 
	C376.450256,579.071899 376.074310,580.555664 375.420197,582.683777 
z"/>
<path fill="#000000" opacity="1.000000" stroke="none" 
	d="
M244.866837,594.956787 
	C242.739868,595.069397 241.084808,595.223999 239.426727,595.270020 
	C232.007660,595.475769 227.830917,591.783691 227.659302,584.907288 
	C227.475098,577.526917 231.681931,572.781189 238.921204,572.728333 
	C244.207153,572.689758 249.532623,572.072083 254.793365,573.273071 
	C261.242371,574.745422 263.292969,576.989685 263.365875,582.830200 
	C263.434418,588.323181 260.153564,592.844971 254.732697,594.033630 
	C251.680756,594.702820 248.474228,594.667053 244.866837,594.956787 
z"/>
<path fill="#000000" opacity="1.000000" stroke="none" 
	d="
M390.108093,737.708801 
	C387.583984,738.039185 385.418762,738.429382 383.295502,738.268066 
	C378.134430,737.875732 375.771484,735.378418 375.697113,730.258179 
	C375.595612,723.270142 375.591705,716.278259 375.704285,709.290527 
	C375.785217,704.267578 379.080414,701.517090 385.068909,701.159851 
	C390.473816,700.837524 395.039276,703.873779 395.210541,708.559875 
	C395.483765,716.036194 395.390289,723.536987 395.130157,731.016235 
	C395.029053,733.923523 393.580536,736.456238 390.108093,737.708801 
z"/>
<path fill="#000000" opacity="1.000000" stroke="none" 
	d="
M839.294434,245.317795 
	C850.065796,249.764526 854.943909,258.747589 852.355286,268.854736 
	C849.995117,278.069794 840.592285,284.820587 831.439270,283.871552 
	C820.362793,282.723053 812.256958,274.511841 811.882385,264.060272 
	C811.485718,252.996246 822.979187,242.659714 834.054443,244.159149 
	C835.693848,244.381104 837.304016,244.819138 839.294434,245.317795 
z"/>
<path fill="#000000" opacity="1.000000" stroke="none" 
	d="
M678.092163,244.718414 
	C690.531921,242.405167 701.980957,250.054749 703.289612,261.225952 
	C704.713013,273.376801 696.141602,283.279419 683.604248,283.968536 
	C674.709534,284.457428 665.629761,277.636292 663.174927,268.621185 
	C660.835876,260.031097 665.242737,250.580612 673.540039,246.485138 
	C674.878052,245.824722 676.303711,245.341827 678.092163,244.718414 
z"/>
<path fill="#000000" opacity="1.000000" stroke="none" 
	d="
M755.414795,283.697845 
	C744.108032,281.977936 736.582764,273.704712 736.682373,263.449310 
	C736.777649,253.637939 744.591980,245.072098 755.354797,244.197464 
	C765.031067,243.411118 774.765442,248.956406 777.149231,260.585815 
	C779.220581,270.691437 772.223572,281.042664 762.207642,283.184204 
	C760.128052,283.628876 757.947205,283.600403 755.414795,283.697845 
z"/>
</svg>